<svg xmlns="http://www.w3.org/2000/svg" xmlns:xlink="http://www.w3.org/1999/xlink" width="500" zoomAndPan="magnify" viewBox="0 0 375 374.999991" height="500" preserveAspectRatio="xMidYMid meet" version="1.0"><defs><clipPath id="cbb7846a34"><path d="M 33.929688 33.929688 L 341.066406 33.929688 L 341.066406 341.066406 L 33.929688 341.066406 Z M 33.929688 33.929688 " clip-rule="nonzero"/></clipPath><clipPath id="42fc8b627b"><path d="M 60.644531 58.875 L 314.144531 58.875 L 314.144531 316.125 L 60.644531 316.125 Z M 60.644531 58.875 " clip-rule="nonzero"/></clipPath><clipPath id="69cee3eeb8"><path d="M 121.074219 159.011719 L 156.308594 159.011719 L 156.308594 194.246094 L 121.074219 194.246094 Z M 121.074219 159.011719 " clip-rule="nonzero"/></clipPath><clipPath id="beffe9306e"><path d="M 138.691406 159.011719 C 128.960938 159.011719 121.074219 166.898438 121.074219 176.628906 C 121.074219 186.359375 128.960938 194.246094 138.691406 194.246094 C 148.421875 194.246094 156.308594 186.359375 156.308594 176.628906 C 156.308594 166.898438 148.421875 159.011719 138.691406 159.011719 Z M 138.691406 159.011719 " clip-rule="nonzero"/></clipPath><clipPath id="7fc6a46222"><path d="M 215 153 L 262 153 L 262 200 L 215 200 Z M 215 153 " clip-rule="nonzero"/></clipPath><clipPath id="99fba2c41d"><path d="M 238.355469 142.972656 L 272.015625 176.628906 L 238.355469 210.289062 L 204.699219 176.628906 Z M 238.355469 142.972656 " clip-rule="nonzero"/></clipPath><clipPath id="688c254a55"><path d="M 261.496094 166.113281 L 248.875 153.492188 L 238.355469 164.007812 L 227.839844 153.492188 L 215.21875 166.113281 L 225.734375 176.628906 L 215.21875 187.148438 L 227.839844 199.769531 L 238.355469 189.253906 L 248.875 199.769531 L 261.496094 187.148438 L 250.980469 176.628906 Z M 261.496094 166.113281 " clip-rule="nonzero"/></clipPath></defs><g clip-path="url(#cbb7846a34)"><path fill="#ffffff" d="M 107.429688 23.429688 L 170.429688 23.429688 L 170.429688 44.429688 L 107.429688 44.429688 Z M 180.929688 23.429688 L 243.929688 23.429688 L 243.929688 44.429688 L 180.929688 44.429688 Z M 254.429688 23.429688 L 317.429688 23.429688 L 317.429688 44.429688 L 254.429688 44.429688 Z M 327.929688 23.429688 L 351.566406 23.429688 L 351.566406 83.792969 L 330.566406 83.792969 L 330.566406 33.929688 L 341.066406 33.929688 L 341.066406 44.429688 L 327.929688 44.429688 Z M 351.566406 94.292969 L 351.566406 157.292969 L 330.566406 157.292969 L 330.566406 94.292969 Z M 351.566406 167.792969 L 351.566406 230.792969 L 330.566406 230.792969 L 330.566406 167.792969 Z M 351.566406 241.292969 L 351.566406 304.292969 L 330.566406 304.292969 L 330.566406 241.292969 Z M 351.566406 314.792969 L 351.566406 351.566406 L 304.339844 351.566406 L 304.339844 330.566406 L 341.066406 330.566406 L 341.066406 341.066406 L 330.566406 341.066406 L 330.566406 314.792969 Z M 293.839844 351.566406 L 230.839844 351.566406 L 230.839844 330.566406 L 293.839844 330.566406 Z M 220.339844 351.566406 L 157.339844 351.566406 L 157.339844 330.566406 L 220.339844 330.566406 Z M 146.839844 351.566406 L 83.839844 351.566406 L 83.839844 330.566406 L 146.839844 330.566406 Z M 73.339844 351.566406 L 23.429688 351.566406 L 23.429688 317.476562 L 44.429688 317.476562 L 44.429688 341.066406 L 33.929688 341.066406 L 33.929688 330.566406 L 73.339844 330.566406 Z M 23.429688 306.976562 L 23.429688 243.976562 L 44.429688 243.976562 L 44.429688 306.976562 Z M 23.429688 233.476562 L 23.429688 170.476562 L 44.429688 170.476562 L 44.429688 233.476562 Z M 23.429688 159.976562 L 23.429688 96.976562 L 44.429688 96.976562 L 44.429688 159.976562 Z M 23.429688 86.476562 L 23.429688 23.429688 L 96.929688 23.429688 L 96.929688 44.429688 L 33.929688 44.429688 L 33.929688 33.929688 L 44.429688 33.929688 L 44.429688 86.476562 Z M 23.429688 86.476562 " fill-opacity="1" fill-rule="nonzero"/></g><g clip-path="url(#42fc8b627b)"><path fill="#ffffff" d="M 299.066406 151.121094 L 310.296875 58.875 L 230.425781 102.007812 L 144.527344 102.007812 L 64.65625 58.875 L 75.886719 151.121094 L 60.648438 225.179688 L 95.238281 289.839844 L 187.480469 316.109375 L 279.722656 289.839844 L 314.3125 225.179688 Z M 270.234375 278.074219 L 187.472656 301.640625 L 104.722656 278.074219 L 75.296875 223.058594 L 89.976562 151.695312 L 81.726562 83.90625 L 141.015625 115.917969 L 233.941406 115.917969 L 293.230469 83.90625 L 284.976562 151.695312 L 299.660156 223.058594 Z M 270.234375 278.074219 " fill-opacity="1" fill-rule="nonzero"/></g><path fill="#ffffff" d="M 138.683594 253.695312 L 236.269531 253.695312 L 187.472656 211.4375 Z M 138.683594 253.695312 " fill-opacity="1" fill-rule="nonzero"/><g clip-path="url(#69cee3eeb8)"><g clip-path="url(#beffe9306e)"><path fill="#ffffff" d="M 121.074219 159.011719 L 156.308594 159.011719 L 156.308594 194.246094 L 121.074219 194.246094 Z M 121.074219 159.011719 " fill-opacity="1" fill-rule="nonzero"/></g></g><g clip-path="url(#7fc6a46222)"><g clip-path="url(#99fba2c41d)"><g clip-path="url(#688c254a55)"><path fill="#ffffff" d="M 238.355469 142.972656 L 272.015625 176.628906 L 238.355469 210.289062 L 204.699219 176.628906 Z M 238.355469 142.972656 " fill-opacity="1" fill-rule="nonzero"/></g></g></g></svg>